<svg xmlns="http://www.w3.org/2000/svg" viewBox="0 0 800 800" width="800" height="800">
  <defs>
    <linearGradient id="g" x1="0" y1="0" x2="1" y2="1">
      <stop offset="0" stop-color="#7c5cff" stop-opacity="0.95" />
      <stop offset="1" stop-color="#22d3ee" stop-opacity="0.75" />
    </linearGradient>
    <radialGradient id="r" cx="30%" cy="20%" r="80%">
      <stop offset="0" stop-color="#ffffff" stop-opacity="0.22" />
      <stop offset="1" stop-color="#000000" stop-opacity="0" />
    </radialGradient>
  </defs>
  <rect x="0" y="0" width="800" height="800" rx="64" fill="#0b1020" />
  <rect x="40" y="40" width="720" height="720" rx="56" fill="url(#g)" opacity="0.9" />
  <rect x="40" y="40" width="720" height="720" rx="56" fill="url(#r)" />
  <circle cx="400" cy="400" r="220" fill="rgba(0,0,0,0.18)" stroke="rgba(255,255,255,0.22)" stroke-width="8" />
  <circle cx="400" cy="400" r="52" fill="rgba(255,255,255,0.12)" stroke="rgba(255,255,255,0.35)" stroke-width="6" />
  <path
    d="M520 246v266c0 56-45 102-101 102s-101-46-101-102 45-102 101-102c22 0 43 7 60 19V276l-160 48v212c0 56-45 102-101 102s-101-46-101-102 45-102 101-102c22 0 43 7 60 19V260c0-20 13-38 32-44l180-54c30-9 60 14 60 44Z"
    fill="rgba(255,255,255,0.82)"
    opacity="0.95"
  />
  <text x="62" y="728" fill="rgba(255,255,255,0.92)" font-size="44" font-family="ui-sans-serif, system-ui, -apple-system, Segoe UI, Roboto, Helvetica, Arial, 'PingFang SC', 'Microsoft YaHei', sans-serif" font-weight="800">
    沙龙
  </text>
  <text x="62" y="776" fill="rgba(255,255,255,0.72)" font-size="26" font-family="ui-sans-serif, system-ui, -apple-system, Segoe UI, Roboto, Helvetica, Arial, 'PingFang SC', 'Microsoft YaHei', sans-serif">
    陈奕迅 · Web Music Player
  </text>
</svg>

